<svg id="Layer_1" data-name="Layer 1" xmlns="http://www.w3.org/2000/svg" xmlns:xlink="http://www.w3.org/1999/xlink" viewBox="0 0 666.72 147.49"><defs><style>.cls-1{fill:#fff;}.cls-2{fill:#00ffbd;}.cls-3{fill:#8b73fc;}.cls-4{fill:#333;opacity:0.42;isolation:isolate;}.cls-5{fill:url(#linear-gradient);}.cls-6{fill:#1b1b1b;}.cls-7{fill:url(#linear-gradient-2);}.cls-8{fill:url(#linear-gradient-3);}.cls-9{fill:url(#linear-gradient-4);}.cls-10{fill:url(#linear-gradient-5);}.cls-11{fill:#ff6153;}.cls-12{fill:url(#linear-gradient-6);}.cls-13{fill:url(#linear-gradient-7);}.cls-14{fill:url(#linear-gradient-8);}</style><linearGradient id="linear-gradient" x1="84.55" y1="899.33" x2="90.77" y2="976.66" gradientTransform="matrix(1, 0, 0, -1, 0, 1001.98)" gradientUnits="userSpaceOnUse"><stop offset="0.01" stop-color="#00a6fe"/><stop offset="0.99" stop-color="#0af8db"/></linearGradient><linearGradient id="linear-gradient-2" x1="-9.91" y1="931.31" x2="182.09" y2="1027.31" gradientTransform="matrix(1, 0, 0, -1, 0, 1001.98)" gradientUnits="userSpaceOnUse"><stop offset="0.05" stop-color="#ff6153"/><stop offset="0.28" stop-color="#ff2eaa"/><stop offset="0.42" stop-color="#a56ffe"/><stop offset="0.99" stop-color="#31ecfe"/></linearGradient><linearGradient id="linear-gradient-3" x1="7.9" y1="895.67" x2="199.9" y2="991.67" xlink:href="#linear-gradient-2"/><linearGradient id="linear-gradient-4" x1="16.97" y1="877.55" x2="208.97" y2="973.55" xlink:href="#linear-gradient-2"/><linearGradient id="linear-gradient-5" x1="-6.55" y1="924.57" x2="185.45" y2="1020.57" xlink:href="#linear-gradient-2"/><linearGradient id="linear-gradient-6" x1="26.16" y1="859.17" x2="218.16" y2="955.17" xlink:href="#linear-gradient-2"/><linearGradient id="linear-gradient-7" x1="28.07" y1="855.34" x2="220.07" y2="951.34" xlink:href="#linear-gradient-2"/><linearGradient id="linear-gradient-8" x1="20.26" y1="870.95" x2="212.26" y2="966.95" xlink:href="#linear-gradient-2"/></defs><path class="cls-1" d="M210.92,55.41,208.4,69.7h27.71l-2.18,12.36h-27.7l-4,22.76H186.5l10.9-61.76h45.79L241,55.41Z"/><path class="cls-1" d="M296,78.88c-2.88,16.32-15.56,26.65-32.85,26.65s-26.68-10.32-23.81-26.65l6.32-35.82h15.71L255,78.88c-1.48,8.38,3,13.5,10.5,13.5s13.35-5.12,14.83-13.5l6.31-35.82h15.62Z"/><path class="cls-1" d="M336.94,55.67l-8.67,49.15h-15.7l8.66-49.15H302.79L305,43H357.8l-2.24,12.7Z"/><path class="cls-1" d="M420,49.23,411.89,61.5c-5.86-3.8-13.6-6.44-18.63-6.44-4.06,0-7.06,1.5-7.59,4.5-1.89,10.67,31.84,4.59,27.9,26.91-2.18,12.35-14.27,18.88-28,18.88-10.32,0-20.23-3.88-26.49-9.88l8.22-12.09c5.37,5.56,14.25,9.27,20.69,9.27,4.94,0,8.36-1.86,9-5.39,1.93-10.94-31.87-4.41-28-26.29,2-11.38,13.07-18.62,27.9-18.62C405.73,42.35,414.34,45.09,420,49.23Z"/><path class="cls-1" d="M467.63,74.82l-5.29,30H447.16l4.54-25.76c1-5.56-1.68-9-6.79-9-5.56,0-9.79,4-11.41,9.61l-4.43,25.15H413.8l8.39-47.56h15.26L436.09,65a21.47,21.47,0,0,1,17.37-8.47C464,56.56,469.59,63.7,467.63,74.82Z"/><path class="cls-1" d="M466.19,104.82l8.38-47.56h15.18l-8.39,47.56Zm26.5-61.23a9.61,9.61,0,0,1-9.46,8.11c-4.68,0-7.44-3.35-6.6-8.11a9.6,9.6,0,0,1,9.45-8C490.75,35.56,493.52,38.91,492.69,43.59Z"/><path class="cls-1" d="M541,81.26c-2.55,14.48-12.9,24.09-26.22,24.09-6.18,0-10.77-2.47-13.35-6.88l-4.14,23.47H482.05l11.4-64.68h15.27l-1.1,6.27a20.88,20.88,0,0,1,15.4-6.8C536.43,56.73,543.62,66.53,541,81.26Zm-15.28-.44c1.28-7.23-2.14-12.35-8.5-12.35-6.17,0-11.4,5.12-12.67,12.35-1.31,7.41,2.13,12.44,8.3,12.44C519.23,93.26,524.45,88.15,525.74,80.82Z"/><path class="cls-1" d="M540.07,104.82l8.38-47.56h15.18l-8.38,47.56Zm26.5-61.23a9.61,9.61,0,0,1-9.46,8.11c-4.68,0-7.44-3.35-6.6-8.11a9.6,9.6,0,0,1,9.45-8C564.64,35.56,567.4,38.91,566.57,43.59Z"/><path class="cls-1" d="M612.33,74.82l-5.29,30H591.86l4.55-25.76c1-5.56-1.68-9-6.8-9-5.56,0-9.79,4-11.4,9.61l-4.43,25.15H558.51l8.39-47.56h15.26L580.79,65a21.49,21.49,0,0,1,17.38-8.47C608.67,56.56,614.29,63.7,612.33,74.82Z"/><path class="cls-1" d="M659.1,100.5c-2.38,13.5-14.3,22.06-29.66,22.06a33.28,33.28,0,0,1-20.07-6.27L616.48,106a22.64,22.64,0,0,0,13.9,4.76c7.32,0,12.42-3.88,13.46-9.79l.89-5a19.78,19.78,0,0,1-14.8,6.35c-12,0-18.85-9.17-16.41-23,2.38-13.5,12.18-22.5,24.09-22.5,6.1-.08,10.46,2.21,12.91,6.36l1-5.83h15.17ZM647.59,79.67c1.23-7-1.91-11.64-7.83-11.64s-10.9,4.76-12.11,11.64,2,11.57,8,11.57S646.4,86.47,647.59,79.67Z"/><path class="cls-2" d="M141.53,23.6C128.3,8.56,109.46.4,87,0h-.12C64.5.4,45.66,8.57,32.43,23.61,20.71,36.94,14.25,54.75,14.25,73.75s6.46,36.82,18.18,50.14c13.23,15,32.08,23.2,54.5,23.6h.12c22.42-.4,41.26-8.56,54.49-23.6,11.72-13.33,18.18-31.14,18.18-50.15S153.26,36.93,141.53,23.6ZM87,140.7c-45.31-.84-65.94-35.28-65.94-66.95S41.68,7.64,87,6.8c45.31.83,65.94,35.28,65.94,66.94S132.29,139.86,87,140.7Z"/><path class="cls-3" d="M86.9.78c-95.25,1.71-95.24,143.27,0,145C182.16,144,182.15,2.48,86.9.78Zm51.88,89.57h1.73A56.36,56.36,0,0,1,104,126.87v-1.73L86.9,115.28l-17.08,9.86v1.73A56.4,56.4,0,0,1,33.29,90.35H35l9.86-17.09L35,56.18H33.29A56.4,56.4,0,0,1,69.82,19.65v1.73L86.9,31.25,104,21.38V19.65a56.39,56.39,0,0,1,36.54,36.53h-1.74l-9.86,17.08Z"/><path class="cls-4" d="M135.68,111l-7.11,0a56.33,56.33,0,0,1-10.42,9c5.13-.13,20,.43,24.86-.49a72,72,0,0,0,7.4-11.67A37.13,37.13,0,0,1,135.68,111Z"/><path class="cls-4" d="M55.59,120a56.21,56.21,0,0,1-10.4-9c-7.19.19-15.22.3-21.64-2.76a64.79,64.79,0,0,0,7,11.06C35.35,120.2,50.55,119.87,55.59,120Z"/><path class="cls-5" d="M142,111.05H31.82A31.41,31.41,0,0,1,.41,79.64c-2.55-21.85,6.75-43.59,31.41-44H142A31.41,31.41,0,0,1,173.4,67C176,88.87,166.65,110.6,142,111.05Z"/><path class="cls-6" d="M107.87,88.46a39.41,39.41,0,0,0,8.55,22.73h7.27a60.16,60.16,0,0,1-10-25.37c-1.16-5.13-1.33-11.68.68-19.82a33,33,0,0,1,1.17-4.17c2.33-7.31,6.35-15.78,12.77-25.53,0,0-31.25,37.56-36.65,74.89h12.75C102,96.55,107.87,88.46,107.87,88.46Z"/><path class="cls-6" d="M159.38,47.71l5.15-2.43A31.33,31.33,0,0,0,142,35.74h-8.83C120.42,55.08,118.37,67,159.38,47.71Z"/><path class="cls-6" d="M86.63,94.33s-45.85,10.93-28.42-3.47c8-6.64,37.19-32.61,58.8-55.12H99.27l-.14.18C75.26,66.23-.14,132.65,86.63,94.33Z"/><path class="cls-7" d="M31.15,35.78C7,36.61-2.12,58.14.41,79.78a32.12,32.12,0,0,0,.2,3.56L8.19,55.62Z"/><path class="cls-8" d="M115.54,61.83h0l14.1,8.85,36.08-24.1c-.39-.44-.79-.87-1.19-1.29-1.66.77-3.35,1.57-5.15,2.42-41,19.3-39,7.37-26.22-12H117C95.4,58.25,66.25,84.23,58.21,90.87c-17.43,14.39,28.42,3.46,28.42,3.46C-.14,132.65,75.26,66.24,99.13,35.92l.14-.17H85.64c-11.08,16.73-35.72,53.93-35.26,53,.38-.76,12.9-31.09,21.94-53H55.52c0,.37.09.74.11,1.1v.67c0,.23,0,.44,0,.65,0,.45-.07.85-.12,1.27A22.7,22.7,0,0,1,54.41,44a38.72,38.72,0,0,1-1.91,4.5c.65-6.9-.63-10-.63-10C49.73,53,38.83,68.19,37.45,70l-1.14,1.32c-3.53,4-7.22,7.82-10.94,11.51s-7.47,7.28-11,10.9c-.89.92-1.76,1.82-2.61,2.74s-1.66,1.86-2.45,2.8c-.36.43-.7.86-1,1.3a31.34,31.34,0,0,0,23.57,10.65H91.66c5.4-37.33,36.65-74.89,36.65-74.89C121.89,46.05,117.87,54.52,115.54,61.83Z"/><path class="cls-9" d="M114.37,66c-2,8.15-1.84,14.7-.68,19.82A55.76,55.76,0,0,1,114.37,66Z"/><path class="cls-10" d="M6,92c.75-1.15,1.52-2.29,2.33-3.38,3.2-4.38,6.67-8.41,10.13-12.35L28.78,64.64c3.4-3.85,6.73-7.72,9.92-11.68l2.37-3,1.14-1.49c.37-.49.75-1,1.1-1.48a48.66,48.66,0,0,0,3.81-6,17.51,17.51,0,0,0,1.25-2.93,7.5,7.5,0,0,0,.39-2.3H31.82c-.23,0-.45,0-.67,0l-23,19.85L.61,83.35A31.33,31.33,0,0,0,4.23,94.82C4.78,93.85,5.36,92.91,6,92Z"/><path class="cls-11" d="M114.37,66c.33-1.34.72-2.73,1.17-4.16A32.46,32.46,0,0,0,114.37,66Z"/><path class="cls-12" d="M107.87,88.46s-5.89,8.09-3.46,22.73h12A39.41,39.41,0,0,1,107.87,88.46Z"/><path class="cls-13" d="M113.69,85.81a60.14,60.14,0,0,0,10,25.38H142c24.66-.45,34-22.19,31.41-44a31.3,31.3,0,0,0-4.54-16.29l-45.8,50.32S116.16,96.67,113.69,85.81Z"/><path class="cls-14" d="M129.64,70.68l-14.1-8.85h0c-.45,1.43-.84,2.82-1.17,4.16a55.76,55.76,0,0,0-.68,19.82c2.47,10.86,9.37,15.38,9.37,15.38l45.8-50.32a32.33,32.33,0,0,0-3.14-4.29Z"/><path class="cls-6" d="M48.37,38.05A17.51,17.51,0,0,1,47.12,41a47.84,47.84,0,0,1-3.81,6c-.35.5-.74,1-1.1,1.49L41.07,50,38.7,53c-3.19,4-6.52,7.83-9.93,11.68L18.42,76.26c-3.46,3.94-6.93,8-10.13,12.35C7.48,89.7,6.71,90.84,6,92c-.6.92-1.18,1.86-1.73,2.82a31.89,31.89,0,0,0,4,5.73c.34-.44.68-.87,1-1.3.8-.94,1.61-1.88,2.46-2.8s1.72-1.83,2.6-2.74c3.56-3.62,7.31-7.2,11-10.9s7.41-7.5,10.94-11.51c.39-.44.77-.88,1.15-1.33,1.38-1.78,12.28-17,14.41-31.5,0,0,1.29,3.14.64,10A36.53,36.53,0,0,0,54.4,44a21.74,21.74,0,0,0,1.1-4.56,12.56,12.56,0,0,0,.11-1.26c0-.22,0-.43,0-.65l0-.67c0-.36,0-.73-.1-1.11H48.76A7.56,7.56,0,0,1,48.37,38.05Z"/><path class="cls-6" d="M50.38,88.75c-.46.92,24.18-36.27,35.26-53H72.32C63.28,57.67,50.76,88,50.38,88.75Z"/><path class="cls-6" d="M118.91,53.11S104.16,85.2,146.53,97.2c0,0-34.22-.15-38.07-25.19"/><path class="cls-6" d="M60.83,73.47c.2,13.63-21.21,13.63-21,0C39.62,59.84,61,59.84,60.83,73.47Z"/><path class="cls-6" d="M134.14,73.47c.2,13.63-21.2,13.63-21,0C112.94,59.84,134.34,59.84,134.14,73.47Z"/></svg>
